<svg xmlns="http://www.w3.org/2000/svg" id="Main" viewBox="0 0 1069.27 952.27"><title>MG</title><path id="logo" d="M1243.47,1668.57a30.6,30.6,0,0,0-12.89-2.61H938.24a53.88,53.88,0,0,0-53.89,53.88,6.1,6.1,0,0,0,6.1,6.1h151.46c-32.44,210.21-196,365-392.09,365-219.45,0-398-197.52-398-440.31,0-111,38.47-218.18,106.26-299.21l48.44,53.11c-38.77,74.85-59.22,159.36-59.22,246.1a538.35,538.35,0,0,0,30.74,180.21c32.14,90.59,105.52,161.81,198.69,185.46q5.26,1.34,10.59,2.48c-108.32-78.76-180-214.33-180-368.15,0-69.46,14.66-137.23,42.67-198.48l234.16,256.77a51.46,51.46,0,0,0,38.19,16.89c1.17,0,2.35,0,3.53-.12A51.53,51.53,0,0,0,765,1703.46L967,1411.53c32.07,46.07,56.56,92.68,75.64,144.19a70.46,70.46,0,0,0,65.55,45.93l118.41.24h.06a29.55,29.55,0,0,0,4.44-.37c.23,0,.46,0,.69-.07s.45-.09.67-.13l.48-.1a30,30,0,0,0,24-34c-21.61-140.77-94.08-264.41-198.82-339.21a30,30,0,0,0-42.09,7.34L810.6,1532.14,513.94,1216.79a57.76,57.76,0,0,0-78.89-4.91,5.54,5.54,0,0,0-.5,8.06l341.14,362.63-54.19,78.28L380.21,1286.6c-.22-.25-.5-.42-.73-.66s-.38-.51-.62-.74c-.48-.47-1-.8-1.54-1.23a30.62,30.62,0,0,0-2.46-2c-.78-.54-1.59-1-2.41-1.45a29.32,29.32,0,0,0-2.68-1.36c-.88-.38-1.78-.68-2.69-1s-1.83-.58-2.76-.78-1.9-.33-2.85-.45-1.87-.21-2.81-.23-1.94,0-2.91.1-1.85.15-2.77.3-2,.41-2.92.67-1.73.49-2.59.81-1.94.82-2.9,1.29c-.78.4-1.55.79-2.31,1.26a30.07,30.07,0,0,0-2.73,1.94c-.44.35-.93.59-1.35,1-.27.24-.46.53-.73.77s-.69.53-1,.85c-91.89,94.21-144.59,227.2-144.59,364.86,0,275.86,205.44,500.29,458,500.29C765,2150.88,875,2104.05,959.7,2019c77.21-77.54,127.3-180.78,142.84-293.06h94.85c-21.17,80.91-62.31,169.59-102.1,232.19-14.5,22.81-52.32,67.73-69.14,86.87-24.66,28.08-75,69.88-105.27,89.7,72-20.39,138.76-59.63,194.45-115.54,83.45-83.78,135.19-197.66,145.69-320.66A30.08,30.08,0,0,0,1243.47,1668.57Zm-196.18-373c70.61,59.69,121.41,146.88,143.72,246.26l-82.67-.17a10.11,10.11,0,0,1-9.43-6.79c-23.41-63.22-54-119.58-95.58-175.79Z" transform="translate(-191.86 -1198.61)" fill="#ffffff"/></svg>